<svg width="38" height="36" viewBox="0 0 38 36" fill="none" xmlns="http://www.w3.org/2000/svg">
<path fill-rule="evenodd" clip-rule="evenodd" d="M17.537 24.7354H13.9785C13.3688 24.7354 12.7827 24.5979 12.2559 24.3471L11.1059 26.9151C10.9145 27.3411 10.9501 27.8359 11.2008 28.2275C11.4497 28.6208 11.8783 28.8579 12.3389 28.8579H13.2315C13.9751 28.0145 15.0574 27.4837 16.26 27.4837C17.4625 27.4837 18.5448 28.0145 19.2901 28.8579H24.0713C24.8149 28.0145 25.8972 27.4837 27.0997 27.4837C28.3023 27.4837 29.3846 28.0145 30.1298 28.8579H32.5197C33.2683 28.8579 33.8747 29.4728 33.8747 30.2321C33.8747 30.9913 33.2683 31.6063 32.5197 31.6063H31.1647C31.1647 33.8823 29.3439 35.7288 27.0997 35.7288C24.8572 35.7288 23.0348 33.8823 23.0348 31.6063H20.3248C20.3248 33.8823 18.504 35.7288 16.2598 35.7288C14.0173 35.7288 12.1949 33.8823 12.1949 31.6063V31.6028C10.8687 31.5564 9.6441 30.8539 8.92086 29.715C8.17391 28.5384 8.06551 27.0543 8.63801 25.778L10.2335 22.2171C10.159 22.0385 10.098 21.8547 10.0472 21.664L6.64959 8.59544C6.64112 8.55765 6.63265 8.51986 6.62587 8.48207L5.83322 3.88549C5.71973 3.22759 5.15741 2.74837 4.49856 2.74837H1.35499C0.606341 2.74837 0 2.13344 0 1.37418C0 0.61493 0.606341 0 1.35499 0H4.49856C6.47346 0 8.16211 1.43944 8.50257 3.4114L9.09876 6.87091H14.8743H31.1324H33.7661C35.0907 6.87091 36.3339 7.52709 37.096 8.62815C37.8548 9.72922 38.0395 11.1395 37.5855 12.402L36.4812 15.4836C36.4592 15.5523 36.4355 15.6176 36.4101 15.6828L34.1371 22.0212C33.5527 23.6513 32.0267 24.7353 30.316 24.7353H28.3783L17.537 24.7354ZM13.7193 9.61934H9.7187L11.133 15.0576L14.6593 14.8652L13.7193 9.61934ZM11.8393 17.7717L12.6675 20.9632C12.8251 21.5661 13.3637 21.9869 13.9785 21.9869H15.9381L15.1488 17.5896L11.8393 17.7717ZM21.6256 9.61934H16.4731L17.3878 14.7141L21.6255 14.4823L21.6256 9.61934ZM29.488 9.61934H24.3355V14.3347L28.6849 14.0959L29.488 9.61934ZM34.2033 13.7934L35.04 11.4642C35.1908 11.0416 35.1298 10.571 34.8757 10.2051C34.6234 9.83748 34.2084 9.61934 33.7663 9.61934H32.242L31.4662 13.9446L34.2033 13.7934ZM30.0232 21.9871H30.3162C30.887 21.9871 31.3951 21.6264 31.5899 21.0835L33.1972 16.6004L30.9683 16.7224L30.0232 21.9871ZM24.3357 21.9871H27.2693L28.1873 16.8751L24.3357 17.0864V21.9871ZM18.692 21.9871H21.6256V17.2357L17.8756 17.4418L18.692 21.9871ZM14.9048 31.6064C14.9048 32.3656 15.5112 32.9805 16.2598 32.9805C17.0085 32.9805 17.6148 32.3656 17.6148 31.6064C17.6148 30.8471 17.0085 30.2322 16.2598 30.2322C15.5112 30.2322 14.9048 30.8471 14.9048 31.6064ZM25.7447 31.6064C25.7447 32.3656 26.3511 32.9805 27.0997 32.9805C27.8484 32.9805 28.4547 32.3656 28.4547 31.6064C28.4547 30.8471 27.8484 30.2322 27.0997 30.2322C26.3511 30.2322 25.7447 30.8471 25.7447 31.6064Z" fill="#1B4965"/>
</svg>
